<?xml version="1.0" encoding="UTF-8"?> <svg xmlns="http://www.w3.org/2000/svg" width="186" height="30" viewBox="0 0 186 30" fill="none"><path d="M6.04994 12.208C4.35394 12.208 2.95127 11.648 1.84194 10.528C0.743271 9.408 0.193938 8.032 0.193938 6.4C0.193938 4.768 0.743271 3.392 1.84194 2.272C2.95127 1.152 4.35394 0.591999 6.04994 0.591999C7.07394 0.591999 8.0126 0.837332 8.86594 1.328C9.72994 1.81867 10.4019 2.48 10.8819 3.312L9.58594 4.064C9.26594 3.44533 8.78594 2.95467 8.14594 2.592C7.5166 2.21867 6.81794 2.032 6.04994 2.032C4.75927 2.032 3.70327 2.448 2.88194 3.28C2.07127 4.112 1.66594 5.152 1.66594 6.4C1.66594 7.63733 2.07127 8.672 2.88194 9.504C3.70327 10.336 4.75927 10.752 6.04994 10.752C6.81794 10.752 7.5166 10.5707 8.14594 10.208C8.78594 9.83467 9.26594 9.344 9.58594 8.736L10.8819 9.472C10.4126 10.304 9.74594 10.9707 8.88194 11.472C8.01794 11.9627 7.07394 12.208 6.04994 12.208ZM18.4221 4V5.344H15.7021V12H14.3101V5.344H11.5741V4H18.4221ZM26.0814 10.992C25.2601 11.8027 24.2628 12.208 23.0894 12.208C21.9161 12.208 20.9188 11.8027 20.0974 10.992C19.2868 10.1813 18.8814 9.184 18.8814 8C18.8814 6.816 19.2868 5.81867 20.0974 5.008C20.9188 4.19733 21.9161 3.792 23.0894 3.792C24.2628 3.792 25.2601 4.19733 26.0814 5.008C26.9028 5.81867 27.3134 6.816 27.3134 8C27.3134 9.184 26.9028 10.1813 26.0814 10.992ZM23.0894 10.848C23.8894 10.848 24.5614 10.576 25.1054 10.032C25.6494 9.488 25.9214 8.81067 25.9214 8C25.9214 7.18933 25.6494 6.512 25.1054 5.968C24.5614 5.424 23.8894 5.152 23.0894 5.152C22.3001 5.152 21.6334 5.424 21.0894 5.968C20.5454 6.512 20.2734 7.18933 20.2734 8C20.2734 8.81067 20.5454 9.488 21.0894 10.032C21.6334 10.576 22.3001 10.848 23.0894 10.848ZM34.7624 4H35.8824V12H34.5064V6.384L30.0744 12H28.9544V4H30.3304V9.616L34.7624 4ZM46.0013 4V12H44.6413V6.192L42.0973 10.288H41.9213L39.3773 6.192V12H38.0013V4H39.4893L42.0013 8.048L44.5133 4H46.0013ZM54.8783 10.992C54.057 11.8027 53.0596 12.208 51.8863 12.208C50.713 12.208 49.7156 11.8027 48.8943 10.992C48.0836 10.1813 47.6783 9.184 47.6783 8C47.6783 6.816 48.0836 5.81867 48.8943 5.008C49.7156 4.19733 50.713 3.792 51.8863 3.792C53.0596 3.792 54.057 4.19733 54.8783 5.008C55.6996 5.81867 56.1103 6.816 56.1103 8C56.1103 9.184 55.6996 10.1813 54.8783 10.992ZM51.8863 10.848C52.6863 10.848 53.3583 10.576 53.9023 10.032C54.4463 9.488 54.7183 8.81067 54.7183 8C54.7183 7.18933 54.4463 6.512 53.9023 5.968C53.3583 5.424 52.6863 5.152 51.8863 5.152C51.097 5.152 50.4303 5.424 49.8863 5.968C49.3423 6.512 49.0703 7.18933 49.0703 8C49.0703 8.81067 49.3423 9.488 49.8863 10.032C50.4303 10.576 51.097 10.848 51.8863 10.848ZM61.5113 12.208C60.306 12.208 59.3033 11.808 58.5033 11.008C57.7033 10.1973 57.3033 9.19467 57.3033 8C57.3033 6.80533 57.7033 5.808 58.5033 5.008C59.3033 4.19733 60.306 3.792 61.5113 3.792C62.3006 3.792 63.01 3.984 63.6393 4.368C64.2686 4.74133 64.738 5.248 65.0473 5.888L63.8793 6.56C63.6766 6.13333 63.362 5.792 62.9353 5.536C62.5193 5.28 62.0446 5.152 61.5113 5.152C60.7113 5.152 60.0393 5.424 59.4953 5.968C58.962 6.512 58.6953 7.18933 58.6953 8C58.6953 8.8 58.962 9.472 59.4953 10.016C60.0393 10.56 60.7113 10.832 61.5113 10.832C62.0446 10.832 62.5246 10.7093 62.9513 10.464C63.378 10.208 63.7033 9.86667 63.9273 9.44L65.1113 10.128C64.77 10.7573 64.2793 11.264 63.6393 11.648C62.9993 12.0213 62.29 12.208 61.5113 12.208ZM72.3127 4V5.344H69.5927V12H68.2007V5.344H65.4647V4H72.3127ZM76.9086 6.88C77.7086 6.88 78.3699 7.12 78.8926 7.6C79.4259 8.06933 79.6926 8.68267 79.6926 9.44C79.6926 10.1973 79.4259 10.816 78.8926 11.296C78.3699 11.7653 77.7086 12 76.9086 12H73.5326V4H74.9246V6.88H76.9086ZM76.9086 10.704C77.3032 10.704 77.6339 10.592 77.9006 10.368C78.1779 10.1333 78.3166 9.824 78.3166 9.44C78.3166 9.056 78.1779 8.74667 77.9006 8.512C77.6339 8.27733 77.3032 8.16 76.9086 8.16H74.9246V10.704H76.9086ZM91.9568 12H90.2288L86.5808 8.208V12H85.1888V4H86.5808V7.536L90.0368 4H91.8288L88.0048 7.872L91.9568 12ZM99.2689 10.992C98.4476 11.8027 97.4503 12.208 96.2769 12.208C95.1036 12.208 94.1063 11.8027 93.2849 10.992C92.4743 10.1813 92.0689 9.184 92.0689 8C92.0689 6.816 92.4743 5.81867 93.2849 5.008C94.1063 4.19733 95.1036 3.792 96.2769 3.792C97.4503 3.792 98.4476 4.19733 99.2689 5.008C100.09 5.81867 100.501 6.816 100.501 8C100.501 9.184 100.09 10.1813 99.2689 10.992ZM96.2769 10.848C97.0769 10.848 97.7489 10.576 98.2929 10.032C98.8369 9.488 99.1089 8.81067 99.1089 8C99.1089 7.18933 98.8369 6.512 98.2929 5.968C97.7489 5.424 97.0769 5.152 96.2769 5.152C95.4876 5.152 94.8209 5.424 94.2769 5.968C93.7329 6.512 93.4609 7.18933 93.4609 8C93.4609 8.81067 93.7329 9.488 94.2769 10.032C94.8209 10.576 95.4876 10.848 96.2769 10.848ZM107.678 4H109.07V12H107.678V8.656H103.534V12H102.142V4H103.534V7.328H107.678V4ZM114.949 12.208C113.743 12.208 112.741 11.808 111.941 11.008C111.141 10.1973 110.741 9.19467 110.741 8C110.741 6.80533 111.141 5.808 111.941 5.008C112.741 4.19733 113.743 3.792 114.949 3.792C115.738 3.792 116.447 3.984 117.077 4.368C117.706 4.74133 118.175 5.248 118.485 5.888L117.317 6.56C117.114 6.13333 116.799 5.792 116.373 5.536C115.957 5.28 115.482 5.152 114.949 5.152C114.149 5.152 113.477 5.424 112.933 5.968C112.399 6.512 112.133 7.18933 112.133 8C112.133 8.8 112.399 9.472 112.933 10.016C113.477 10.56 114.149 10.832 114.949 10.832C115.482 10.832 115.962 10.7093 116.389 10.464C116.815 10.208 117.141 9.86667 117.365 9.44L118.549 10.128C118.207 10.7573 117.717 11.264 117.077 11.648C116.437 12.0213 115.727 12.208 114.949 12.208ZM125.21 4H126.698L123.434 12.496C123.093 13.4027 122.613 14.0907 121.994 14.56C121.376 15.04 120.672 15.2533 119.882 15.2V13.904C120.864 13.9787 121.584 13.4453 122.042 12.304L122.17 12.016L118.698 4H120.17L122.906 10.272L125.21 4ZM134.033 4V12H132.641V5.344H129.489V8.608C129.489 9.92 129.222 10.8373 128.689 11.36C128.166 11.872 127.425 12.0853 126.465 12V10.688C127.009 10.7627 127.414 10.6453 127.681 10.336C127.958 10.016 128.097 9.42933 128.097 8.576V4H134.033ZM139.518 6.88C140.318 6.88 140.979 7.12 141.502 7.6C142.035 8.06933 142.302 8.68267 142.302 9.44C142.302 10.1973 142.035 10.816 141.502 11.296C140.979 11.7653 140.318 12 139.518 12H136.142V4H137.534V6.88H139.518ZM139.518 10.704C139.913 10.704 140.243 10.592 140.51 10.368C140.787 10.1333 140.926 9.824 140.926 9.44C140.926 9.056 140.787 8.74667 140.51 8.512C140.243 8.27733 139.913 8.16 139.518 8.16H137.534V10.704H139.518ZM148.828 4V5.344H146.108V12H144.716V5.344H141.98V4H148.828ZM156.36 4H157.752V12H156.36V10.624C155.666 11.68 154.658 12.208 153.336 12.208C152.216 12.208 151.261 11.8027 150.472 10.992C149.682 10.1707 149.288 9.17333 149.288 8C149.288 6.82667 149.682 5.83467 150.472 5.024C151.261 4.20267 152.216 3.792 153.336 3.792C154.658 3.792 155.666 4.32 156.36 5.376V4ZM153.512 10.864C154.322 10.864 155 10.592 155.544 10.048C156.088 9.49333 156.36 8.81067 156.36 8C156.36 7.18933 156.088 6.512 155.544 5.968C155 5.41333 154.322 5.136 153.512 5.136C152.712 5.136 152.04 5.41333 151.496 5.968C150.952 6.512 150.68 7.18933 150.68 8C150.68 8.81067 150.952 9.49333 151.496 10.048C152.04 10.592 152.712 10.864 153.512 10.864ZM166.581 10.672H167.893V14.144H166.517V12H159.861V4H161.253V10.672H165.189V4H166.581V10.672ZM175.184 4H176.304V12H174.928V6.384L170.496 12H169.376V4H170.752V9.616L175.184 4ZM184.231 4H185.351V12H183.975V6.384L179.543 12H178.423V4H179.799V9.616L184.231 4ZM18.7216 17.8H20.6416V29H18.4336V20.136L16.3216 20.728L15.7776 18.84L18.7216 17.8ZM26.2691 21.88C27.3464 21.88 28.2531 22.2053 28.9891 22.856C29.7251 23.496 30.0931 24.392 30.0931 25.544C30.0931 26.696 29.7037 27.5973 28.9251 28.248C28.1571 28.8987 27.2131 29.224 26.0931 29.224C25.1864 29.224 24.3864 29.0213 23.6931 28.616C22.9997 28.2107 22.4984 27.6133 22.1891 26.824L24.0771 25.72C24.3544 26.616 25.0264 27.064 26.0931 27.064C26.6584 27.064 27.0957 26.9307 27.4051 26.664C27.7251 26.3867 27.8851 26.0133 27.8851 25.544C27.8851 25.0853 27.7304 24.7173 27.4211 24.44C27.1117 24.1627 26.6904 24.024 26.1571 24.024H22.7651L23.2131 17.8H29.5651V19.864H25.2611L25.1171 21.88H26.2691ZM39.5947 29.224C38.1974 29.224 37.0987 28.696 36.2987 27.64C35.5094 26.5733 35.1147 25.16 35.1147 23.4C35.1147 21.64 35.5094 20.232 36.2987 19.176C37.0987 18.1093 38.1974 17.576 39.5947 17.576C41.0027 17.576 42.1014 18.1093 42.8907 19.176C43.68 20.232 44.0747 21.64 44.0747 23.4C44.0747 25.16 43.68 26.5733 42.8907 27.64C42.1014 28.696 41.0027 29.224 39.5947 29.224ZM37.8987 26.136C38.2827 26.7547 38.848 27.064 39.5947 27.064C40.3414 27.064 40.9067 26.7493 41.2907 26.12C41.6854 25.4907 41.8827 24.584 41.8827 23.4C41.8827 22.2053 41.6854 21.2933 41.2907 20.664C40.9067 20.0347 40.3414 19.72 39.5947 19.72C38.848 19.72 38.2827 20.0347 37.8987 20.664C37.5147 21.2933 37.3227 22.2053 37.3227 23.4C37.3227 24.5947 37.5147 25.5067 37.8987 26.136ZM49.6728 29.224C48.2755 29.224 47.1768 28.696 46.3768 27.64C45.5875 26.5733 45.1928 25.16 45.1928 23.4C45.1928 21.64 45.5875 20.232 46.3768 19.176C47.1768 18.1093 48.2755 17.576 49.6728 17.576C51.0808 17.576 52.1795 18.1093 52.9688 19.176C53.7581 20.232 54.1528 21.64 54.1528 23.4C54.1528 25.16 53.7581 26.5733 52.9688 27.64C52.1795 28.696 51.0808 29.224 49.6728 29.224ZM47.9768 26.136C48.3608 26.7547 48.9261 27.064 49.6728 27.064C50.4195 27.064 50.9848 26.7493 51.3688 26.12C51.7635 25.4907 51.9608 24.584 51.9608 23.4C51.9608 22.2053 51.7635 21.2933 51.3688 20.664C50.9848 20.0347 50.4195 19.72 49.6728 19.72C48.9261 19.72 48.3608 20.0347 47.9768 20.664C47.5928 21.2933 47.4008 22.2053 47.4008 23.4C47.4008 24.5947 47.5928 25.5067 47.9768 26.136ZM59.7509 29.224C58.3536 29.224 57.2549 28.696 56.4549 27.64C55.6656 26.5733 55.2709 25.16 55.2709 23.4C55.2709 21.64 55.6656 20.232 56.4549 19.176C57.2549 18.1093 58.3536 17.576 59.7509 17.576C61.1589 17.576 62.2576 18.1093 63.0469 19.176C63.8363 20.232 64.2309 21.64 64.2309 23.4C64.2309 25.16 63.8363 26.5733 63.0469 27.64C62.2576 28.696 61.1589 29.224 59.7509 29.224ZM58.0549 26.136C58.4389 26.7547 59.0043 27.064 59.7509 27.064C60.4976 27.064 61.0629 26.7493 61.4469 26.12C61.8416 25.4907 62.0389 24.584 62.0389 23.4C62.0389 22.2053 61.8416 21.2933 61.4469 20.664C61.0629 20.0347 60.4976 19.72 59.7509 19.72C59.0043 19.72 58.4389 20.0347 58.0549 20.664C57.6709 21.2933 57.4789 22.2053 57.4789 23.4C57.4789 24.5947 57.6709 25.5067 58.0549 26.136ZM70.6291 29H68.2131V22.728H65.1091V20.712H73.7331V22.728H70.6291V29ZM65.1091 17.576H73.7331V19.592H65.1091V17.576Z" fill="#403445"></path><path d="M83.3827 22.04C84.4707 22.04 85.3614 22.3653 86.0547 23.016C86.748 23.656 87.0947 24.488 87.0947 25.512C87.0947 26.5467 86.748 27.3893 86.0547 28.04C85.3614 28.68 84.4707 29 83.3827 29H79.0947V17.8H86.1347V19.912H81.3027V22.04H83.3827ZM83.3827 26.936C83.82 26.936 84.1827 26.8133 84.4707 26.568C84.7587 26.312 84.9027 25.96 84.9027 25.512C84.9027 25.064 84.7587 24.7173 84.4707 24.472C84.1827 24.2267 83.82 24.104 83.3827 24.104H81.3027V26.936H83.3827ZM90.6621 26.888H95.3821V29H88.4541V17.8H95.3021V19.912H90.6621V22.296H94.9021V24.376H90.6621V26.888ZM102.172 29.224C100.487 29.224 99.095 28.664 97.9963 27.544C96.8976 26.424 96.3483 25.0427 96.3483 23.4C96.3483 21.7467 96.8976 20.3653 97.9963 19.256C99.095 18.136 100.487 17.576 102.172 17.576C103.186 17.576 104.119 17.816 104.972 18.296C105.836 18.7653 106.508 19.4053 106.988 20.216L105.084 21.32C104.807 20.8187 104.412 20.4293 103.9 20.152C103.388 19.864 102.812 19.72 102.172 19.72C101.084 19.72 100.204 20.0613 99.5323 20.744C98.871 21.4267 98.5403 22.312 98.5403 23.4C98.5403 24.4773 98.871 25.3573 99.5323 26.04C100.204 26.7227 101.084 27.064 102.172 27.064C102.812 27.064 103.388 26.9253 103.9 26.648C104.423 26.36 104.818 25.9707 105.084 25.48L106.988 26.584C106.508 27.3947 105.842 28.04 104.988 28.52C104.135 28.9893 103.196 29.224 102.172 29.224ZM116.713 17.8V29H114.505V19.912H110.553V29H108.345V17.8H116.713ZM117.934 29V26.952C118.595 27.048 119.091 26.9147 119.422 26.552C119.752 26.1893 119.918 25.48 119.918 24.424V17.8H127.534V29H125.342V19.912H122.11V24.36C122.11 25.3307 121.992 26.1467 121.758 26.808C121.523 27.4693 121.198 27.96 120.782 28.28C120.376 28.6 119.939 28.8133 119.47 28.92C119.011 29.0267 118.499 29.0533 117.934 29ZM136.81 29L136.138 26.984H131.674L131.002 29H128.618L132.538 17.8H135.274L139.21 29H136.81ZM132.378 24.92H135.45L133.914 20.344L132.378 24.92ZM146.893 17.8V19.912H143.869V29H141.661V19.912H138.653V17.8H146.893ZM154.494 17.8H156.686V29H154.494V24.36H150.334V29H148.126V17.8H150.334V22.248H154.494V17.8ZM168.191 27.544C167.06 28.664 165.684 29.224 164.063 29.224C162.441 29.224 161.065 28.664 159.935 27.544C158.815 26.4133 158.255 25.032 158.255 23.4C158.255 21.768 158.815 20.392 159.935 19.272C161.065 18.1413 162.441 17.576 164.063 17.576C165.684 17.576 167.06 18.1413 168.191 19.272C169.321 20.392 169.887 21.768 169.887 23.4C169.887 25.032 169.321 26.4133 168.191 27.544ZM161.487 26.04C162.18 26.7227 163.039 27.064 164.063 27.064C165.087 27.064 165.945 26.7227 166.639 26.04C167.332 25.3467 167.679 24.4667 167.679 23.4C167.679 22.3333 167.332 21.4533 166.639 20.76C165.945 20.0667 165.087 19.72 164.063 19.72C163.039 19.72 162.18 20.0667 161.487 20.76C160.793 21.4533 160.447 22.3333 160.447 23.4C160.447 24.4667 160.793 25.3467 161.487 26.04Z" fill="#1771F1"></path><path d="M15.6016 24.2H64.7909V25H15.6016V24.2ZM64.7891 23.752H74.0531V24.552H64.7891V23.752Z" fill="#403445"></path></svg> 